<?xml version="1.0" encoding="utf-8" standalone="no"?>
<!DOCTYPE svg PUBLIC "-//W3C//DTD SVG 1.1//EN"
  "http://www.w3.org/Graphics/SVG/1.1/DTD/svg11.dtd">
<!-- Created with matplotlib (https://matplotlib.org/) -->
<svg height="432pt" version="1.1" viewBox="0 0 576 432" width="576pt" xmlns="http://www.w3.org/2000/svg" xmlns:xlink="http://www.w3.org/1999/xlink">
 <metadata>
  <rdf:RDF xmlns:cc="http://creativecommons.org/ns#" xmlns:dc="http://purl.org/dc/elements/1.1/" xmlns:rdf="http://www.w3.org/1999/02/22-rdf-syntax-ns#">
   <cc:Work>
    <dc:type rdf:resource="http://purl.org/dc/dcmitype/StillImage"/>
    <dc:date>2024-01-05T14:58:49.469452</dc:date>
    <dc:format>image/svg+xml</dc:format>
    <dc:creator>
     <cc:Agent>
      <dc:title>Matplotlib v3.3.4, https://matplotlib.org/</dc:title>
     </cc:Agent>
    </dc:creator>
   </cc:Work>
  </rdf:RDF>
 </metadata>
 <defs>
  <style type="text/css">*{stroke-linecap:butt;stroke-linejoin:round;}</style>
 </defs>
 <g id="figure_1">
  <g id="patch_1">
   <path d="M 0 432 
L 576 432 
L 576 0 
L 0 0 
z
" style="fill:#ffffff;"/>
  </g>
  <g id="axes_1">
   <g id="patch_2">
    <path d="M 72 384.48 
L 518.4 384.48 
L 518.4 51.84 
L 72 51.84 
z
" style="fill:#ffffff;"/>
   </g>
   <g id="PathCollection_1">
    <defs>
     <path d="M 0 3 
C 0.795609 3 1.55874 2.683901 2.12132 2.12132 
C 2.683901 1.55874 3 0.795609 3 0 
C 3 -0.795609 2.683901 -1.55874 2.12132 -2.12132 
C 1.55874 -2.683901 0.795609 -3 0 -3 
C -0.795609 -3 -1.55874 -2.683901 -2.12132 -2.12132 
C -2.683901 -1.55874 -3 -0.795609 -3 0 
C -3 0.795609 -2.683901 1.55874 -2.12132 2.12132 
C -1.55874 2.683901 -0.795609 3 0 3 
z
" id="me29ce9e59b" style="stroke:#ff0000;"/>
    </defs>
    <g clip-path="url(#p28adc54ce4)">
     <use style="fill:#ff0000;stroke:#ff0000;" x="295.2" xlink:href="#me29ce9e59b" y="289.44"/>
    </g>
   </g>
   <g id="matplotlib.axis_1">
    <g id="xtick_1">
     <g id="line2d_1">
      <path clip-path="url(#p28adc54ce4)" d="M 72 384.48 
L 72 51.84 
" style="fill:none;stroke:#808080;stroke-dasharray:0.3,0.495;stroke-dashoffset:0;stroke-width:0.3;"/>
     </g>
     <g id="line2d_2">
      <defs>
       <path d="M 0 0 
L 0 3.5 
" id="mcb579bc8f3" style="stroke:#000000;stroke-width:0.8;"/>
      </defs>
      <g>
       <use style="stroke:#000000;stroke-width:0.8;" x="72" xlink:href="#mcb579bc8f3" y="384.48"/>
      </g>
     </g>
     <g id="text_1">
      <!-- −2.0 -->
      <g transform="translate(59.858594 399.078438)scale(0.1 -0.1)">
       <defs>
        <path d="M 10.59375 35.5 
L 73.1875 35.5 
L 73.1875 27.203125 
L 10.59375 27.203125 
z
" id="DejaVuSans-8722"/>
        <path d="M 19.1875 8.296875 
L 53.609375 8.296875 
L 53.609375 0 
L 7.328125 0 
L 7.328125 8.296875 
Q 12.9375 14.109375 22.625 23.890625 
Q 32.328125 33.6875 34.8125 36.53125 
Q 39.546875 41.84375 41.421875 45.53125 
Q 43.3125 49.21875 43.3125 52.78125 
Q 43.3125 58.59375 39.234375 62.25 
Q 35.15625 65.921875 28.609375 65.921875 
Q 23.96875 65.921875 18.8125 64.3125 
Q 13.671875 62.703125 7.8125 59.421875 
L 7.8125 69.390625 
Q 13.765625 71.78125 18.9375 73 
Q 24.125 74.21875 28.421875 74.21875 
Q 39.75 74.21875 46.484375 68.546875 
Q 53.21875 62.890625 53.21875 53.421875 
Q 53.21875 48.921875 51.53125 44.890625 
Q 49.859375 40.875 45.40625 35.40625 
Q 44.1875 33.984375 37.640625 27.21875 
Q 31.109375 20.453125 19.1875 8.296875 
z
" id="DejaVuSans-50"/>
        <path d="M 10.6875 12.40625 
L 21 12.40625 
L 21 0 
L 10.6875 0 
z
" id="DejaVuSans-46"/>
        <path d="M 31.78125 66.40625 
Q 24.171875 66.40625 20.328125 58.90625 
Q 16.5 51.421875 16.5 36.375 
Q 16.5 21.390625 20.328125 13.890625 
Q 24.171875 6.390625 31.78125 6.390625 
Q 39.453125 6.390625 43.28125 13.890625 
Q 47.125 21.390625 47.125 36.375 
Q 47.125 51.421875 43.28125 58.90625 
Q 39.453125 66.40625 31.78125 66.40625 
z
M 31.78125 74.21875 
Q 44.046875 74.21875 50.515625 64.515625 
Q 56.984375 54.828125 56.984375 36.375 
Q 56.984375 17.96875 50.515625 8.265625 
Q 44.046875 -1.421875 31.78125 -1.421875 
Q 19.53125 -1.421875 13.0625 8.265625 
Q 6.59375 17.96875 6.59375 36.375 
Q 6.59375 54.828125 13.0625 64.515625 
Q 19.53125 74.21875 31.78125 74.21875 
z
" id="DejaVuSans-48"/>
       </defs>
       <use xlink:href="#DejaVuSans-8722"/>
       <use x="83.789062" xlink:href="#DejaVuSans-50"/>
       <use x="147.412109" xlink:href="#DejaVuSans-46"/>
       <use x="179.199219" xlink:href="#DejaVuSans-48"/>
      </g>
     </g>
    </g>
    <g id="xtick_2">
     <g id="line2d_3">
      <path clip-path="url(#p28adc54ce4)" d="M 127.8 384.48 
L 127.8 51.84 
" style="fill:none;stroke:#808080;stroke-dasharray:0.3,0.495;stroke-dashoffset:0;stroke-width:0.3;"/>
     </g>
     <g id="line2d_4">
      <g>
       <use style="stroke:#000000;stroke-width:0.8;" x="127.8" xlink:href="#mcb579bc8f3" y="384.48"/>
      </g>
     </g>
     <g id="text_2">
      <!-- −1.5 -->
      <g transform="translate(115.658594 399.078438)scale(0.1 -0.1)">
       <defs>
        <path d="M 12.40625 8.296875 
L 28.515625 8.296875 
L 28.515625 63.921875 
L 10.984375 60.40625 
L 10.984375 69.390625 
L 28.421875 72.90625 
L 38.28125 72.90625 
L 38.28125 8.296875 
L 54.390625 8.296875 
L 54.390625 0 
L 12.40625 0 
z
" id="DejaVuSans-49"/>
        <path d="M 10.796875 72.90625 
L 49.515625 72.90625 
L 49.515625 64.59375 
L 19.828125 64.59375 
L 19.828125 46.734375 
Q 21.96875 47.46875 24.109375 47.828125 
Q 26.265625 48.1875 28.421875 48.1875 
Q 40.625 48.1875 47.75 41.5 
Q 54.890625 34.8125 54.890625 23.390625 
Q 54.890625 11.625 47.5625 5.09375 
Q 40.234375 -1.421875 26.90625 -1.421875 
Q 22.3125 -1.421875 17.546875 -0.640625 
Q 12.796875 0.140625 7.71875 1.703125 
L 7.71875 11.625 
Q 12.109375 9.234375 16.796875 8.0625 
Q 21.484375 6.890625 26.703125 6.890625 
Q 35.15625 6.890625 40.078125 11.328125 
Q 45.015625 15.765625 45.015625 23.390625 
Q 45.015625 31 40.078125 35.4375 
Q 35.15625 39.890625 26.703125 39.890625 
Q 22.75 39.890625 18.8125 39.015625 
Q 14.890625 38.140625 10.796875 36.28125 
z
" id="DejaVuSans-53"/>
       </defs>
       <use xlink:href="#DejaVuSans-8722"/>
       <use x="83.789062" xlink:href="#DejaVuSans-49"/>
       <use x="147.412109" xlink:href="#DejaVuSans-46"/>
       <use x="179.199219" xlink:href="#DejaVuSans-53"/>
      </g>
     </g>
    </g>
    <g id="xtick_3">
     <g id="line2d_5">
      <path clip-path="url(#p28adc54ce4)" d="M 183.6 384.48 
L 183.6 51.84 
" style="fill:none;stroke:#808080;stroke-dasharray:0.3,0.495;stroke-dashoffset:0;stroke-width:0.3;"/>
     </g>
     <g id="line2d_6">
      <g>
       <use style="stroke:#000000;stroke-width:0.8;" x="183.6" xlink:href="#mcb579bc8f3" y="384.48"/>
      </g>
     </g>
     <g id="text_3">
      <!-- −1.0 -->
      <g transform="translate(171.458594 399.078438)scale(0.1 -0.1)">
       <use xlink:href="#DejaVuSans-8722"/>
       <use x="83.789062" xlink:href="#DejaVuSans-49"/>
       <use x="147.412109" xlink:href="#DejaVuSans-46"/>
       <use x="179.199219" xlink:href="#DejaVuSans-48"/>
      </g>
     </g>
    </g>
    <g id="xtick_4">
     <g id="line2d_7">
      <path clip-path="url(#p28adc54ce4)" d="M 239.4 384.48 
L 239.4 51.84 
" style="fill:none;stroke:#808080;stroke-dasharray:0.3,0.495;stroke-dashoffset:0;stroke-width:0.3;"/>
     </g>
     <g id="line2d_8">
      <g>
       <use style="stroke:#000000;stroke-width:0.8;" x="239.4" xlink:href="#mcb579bc8f3" y="384.48"/>
      </g>
     </g>
     <g id="text_4">
      <!-- −0.5 -->
      <g transform="translate(227.258594 399.078438)scale(0.1 -0.1)">
       <use xlink:href="#DejaVuSans-8722"/>
       <use x="83.789062" xlink:href="#DejaVuSans-48"/>
       <use x="147.412109" xlink:href="#DejaVuSans-46"/>
       <use x="179.199219" xlink:href="#DejaVuSans-53"/>
      </g>
     </g>
    </g>
    <g id="xtick_5">
     <g id="line2d_9">
      <path clip-path="url(#p28adc54ce4)" d="M 295.2 384.48 
L 295.2 51.84 
" style="fill:none;stroke:#808080;stroke-dasharray:0.3,0.495;stroke-dashoffset:0;stroke-width:0.3;"/>
     </g>
     <g id="line2d_10">
      <g>
       <use style="stroke:#000000;stroke-width:0.8;" x="295.2" xlink:href="#mcb579bc8f3" y="384.48"/>
      </g>
     </g>
     <g id="text_5">
      <!-- 0.0 -->
      <g transform="translate(287.248437 399.078438)scale(0.1 -0.1)">
       <use xlink:href="#DejaVuSans-48"/>
       <use x="63.623047" xlink:href="#DejaVuSans-46"/>
       <use x="95.410156" xlink:href="#DejaVuSans-48"/>
      </g>
     </g>
    </g>
    <g id="xtick_6">
     <g id="line2d_11">
      <path clip-path="url(#p28adc54ce4)" d="M 351 384.48 
L 351 51.84 
" style="fill:none;stroke:#808080;stroke-dasharray:0.3,0.495;stroke-dashoffset:0;stroke-width:0.3;"/>
     </g>
     <g id="line2d_12">
      <g>
       <use style="stroke:#000000;stroke-width:0.8;" x="351" xlink:href="#mcb579bc8f3" y="384.48"/>
      </g>
     </g>
     <g id="text_6">
      <!-- 0.5 -->
      <g transform="translate(343.048437 399.078438)scale(0.1 -0.1)">
       <use xlink:href="#DejaVuSans-48"/>
       <use x="63.623047" xlink:href="#DejaVuSans-46"/>
       <use x="95.410156" xlink:href="#DejaVuSans-53"/>
      </g>
     </g>
    </g>
    <g id="xtick_7">
     <g id="line2d_13">
      <path clip-path="url(#p28adc54ce4)" d="M 406.8 384.48 
L 406.8 51.84 
" style="fill:none;stroke:#808080;stroke-dasharray:0.3,0.495;stroke-dashoffset:0;stroke-width:0.3;"/>
     </g>
     <g id="line2d_14">
      <g>
       <use style="stroke:#000000;stroke-width:0.8;" x="406.8" xlink:href="#mcb579bc8f3" y="384.48"/>
      </g>
     </g>
     <g id="text_7">
      <!-- 1.0 -->
      <g transform="translate(398.848437 399.078438)scale(0.1 -0.1)">
       <use xlink:href="#DejaVuSans-49"/>
       <use x="63.623047" xlink:href="#DejaVuSans-46"/>
       <use x="95.410156" xlink:href="#DejaVuSans-48"/>
      </g>
     </g>
    </g>
    <g id="xtick_8">
     <g id="line2d_15">
      <path clip-path="url(#p28adc54ce4)" d="M 462.6 384.48 
L 462.6 51.84 
" style="fill:none;stroke:#808080;stroke-dasharray:0.3,0.495;stroke-dashoffset:0;stroke-width:0.3;"/>
     </g>
     <g id="line2d_16">
      <g>
       <use style="stroke:#000000;stroke-width:0.8;" x="462.6" xlink:href="#mcb579bc8f3" y="384.48"/>
      </g>
     </g>
     <g id="text_8">
      <!-- 1.5 -->
      <g transform="translate(454.648437 399.078438)scale(0.1 -0.1)">
       <use xlink:href="#DejaVuSans-49"/>
       <use x="63.623047" xlink:href="#DejaVuSans-46"/>
       <use x="95.410156" xlink:href="#DejaVuSans-53"/>
      </g>
     </g>
    </g>
    <g id="xtick_9">
     <g id="line2d_17">
      <path clip-path="url(#p28adc54ce4)" d="M 518.4 384.48 
L 518.4 51.84 
" style="fill:none;stroke:#808080;stroke-dasharray:0.3,0.495;stroke-dashoffset:0;stroke-width:0.3;"/>
     </g>
     <g id="line2d_18">
      <g>
       <use style="stroke:#000000;stroke-width:0.8;" x="518.4" xlink:href="#mcb579bc8f3" y="384.48"/>
      </g>
     </g>
     <g id="text_9">
      <!-- 2.0 -->
      <g transform="translate(510.448437 399.078438)scale(0.1 -0.1)">
       <use xlink:href="#DejaVuSans-50"/>
       <use x="63.623047" xlink:href="#DejaVuSans-46"/>
       <use x="95.410156" xlink:href="#DejaVuSans-48"/>
      </g>
     </g>
    </g>
    <g id="text_10">
     <!-- x -->
     <g transform="translate(292.240625 412.756563)scale(0.1 -0.1)">
      <defs>
       <path d="M 54.890625 54.6875 
L 35.109375 28.078125 
L 55.90625 0 
L 45.3125 0 
L 29.390625 21.484375 
L 13.484375 0 
L 2.875 0 
L 24.125 28.609375 
L 4.6875 54.6875 
L 15.28125 54.6875 
L 29.78125 35.203125 
L 44.28125 54.6875 
z
" id="DejaVuSans-120"/>
      </defs>
      <use xlink:href="#DejaVuSans-120"/>
     </g>
    </g>
   </g>
   <g id="matplotlib.axis_2">
    <g id="ytick_1">
     <g id="line2d_19">
      <path clip-path="url(#p28adc54ce4)" d="M 72 384.48 
L 518.4 384.48 
" style="fill:none;stroke:#808080;stroke-dasharray:0.3,0.495;stroke-dashoffset:0;stroke-width:0.3;"/>
     </g>
     <g id="line2d_20">
      <defs>
       <path d="M 0 0 
L -3.5 0 
" id="m510dc5ff7c" style="stroke:#000000;stroke-width:0.8;"/>
      </defs>
      <g>
       <use style="stroke:#000000;stroke-width:0.8;" x="72" xlink:href="#m510dc5ff7c" y="384.48"/>
      </g>
     </g>
     <g id="text_11">
      <!-- −7 -->
      <g transform="translate(50.257812 388.279219)scale(0.1 -0.1)">
       <defs>
        <path d="M 8.203125 72.90625 
L 55.078125 72.90625 
L 55.078125 68.703125 
L 28.609375 0 
L 18.3125 0 
L 43.21875 64.59375 
L 8.203125 64.59375 
z
" id="DejaVuSans-55"/>
       </defs>
       <use xlink:href="#DejaVuSans-8722"/>
       <use x="83.789062" xlink:href="#DejaVuSans-55"/>
      </g>
     </g>
    </g>
    <g id="ytick_2">
     <g id="line2d_21">
      <path clip-path="url(#p28adc54ce4)" d="M 72 360.72 
L 518.4 360.72 
" style="fill:none;stroke:#808080;stroke-dasharray:0.3,0.495;stroke-dashoffset:0;stroke-width:0.3;"/>
     </g>
     <g id="line2d_22">
      <g>
       <use style="stroke:#000000;stroke-width:0.8;" x="72" xlink:href="#m510dc5ff7c" y="360.72"/>
      </g>
     </g>
     <g id="text_12">
      <!-- −6 -->
      <g transform="translate(50.257812 364.519219)scale(0.1 -0.1)">
       <defs>
        <path d="M 33.015625 40.375 
Q 26.375 40.375 22.484375 35.828125 
Q 18.609375 31.296875 18.609375 23.390625 
Q 18.609375 15.53125 22.484375 10.953125 
Q 26.375 6.390625 33.015625 6.390625 
Q 39.65625 6.390625 43.53125 10.953125 
Q 47.40625 15.53125 47.40625 23.390625 
Q 47.40625 31.296875 43.53125 35.828125 
Q 39.65625 40.375 33.015625 40.375 
z
M 52.59375 71.296875 
L 52.59375 62.3125 
Q 48.875 64.0625 45.09375 64.984375 
Q 41.3125 65.921875 37.59375 65.921875 
Q 27.828125 65.921875 22.671875 59.328125 
Q 17.53125 52.734375 16.796875 39.40625 
Q 19.671875 43.65625 24.015625 45.921875 
Q 28.375 48.1875 33.59375 48.1875 
Q 44.578125 48.1875 50.953125 41.515625 
Q 57.328125 34.859375 57.328125 23.390625 
Q 57.328125 12.15625 50.6875 5.359375 
Q 44.046875 -1.421875 33.015625 -1.421875 
Q 20.359375 -1.421875 13.671875 8.265625 
Q 6.984375 17.96875 6.984375 36.375 
Q 6.984375 53.65625 15.1875 63.9375 
Q 23.390625 74.21875 37.203125 74.21875 
Q 40.921875 74.21875 44.703125 73.484375 
Q 48.484375 72.75 52.59375 71.296875 
z
" id="DejaVuSans-54"/>
       </defs>
       <use xlink:href="#DejaVuSans-8722"/>
       <use x="83.789062" xlink:href="#DejaVuSans-54"/>
      </g>
     </g>
    </g>
    <g id="ytick_3">
     <g id="line2d_23">
      <path clip-path="url(#p28adc54ce4)" d="M 72 336.96 
L 518.4 336.96 
" style="fill:none;stroke:#808080;stroke-dasharray:0.3,0.495;stroke-dashoffset:0;stroke-width:0.3;"/>
     </g>
     <g id="line2d_24">
      <g>
       <use style="stroke:#000000;stroke-width:0.8;" x="72" xlink:href="#m510dc5ff7c" y="336.96"/>
      </g>
     </g>
     <g id="text_13">
      <!-- −5 -->
      <g transform="translate(50.257812 340.759219)scale(0.1 -0.1)">
       <use xlink:href="#DejaVuSans-8722"/>
       <use x="83.789062" xlink:href="#DejaVuSans-53"/>
      </g>
     </g>
    </g>
    <g id="ytick_4">
     <g id="line2d_25">
      <path clip-path="url(#p28adc54ce4)" d="M 72 313.2 
L 518.4 313.2 
" style="fill:none;stroke:#808080;stroke-dasharray:0.3,0.495;stroke-dashoffset:0;stroke-width:0.3;"/>
     </g>
     <g id="line2d_26">
      <g>
       <use style="stroke:#000000;stroke-width:0.8;" x="72" xlink:href="#m510dc5ff7c" y="313.2"/>
      </g>
     </g>
     <g id="text_14">
      <!-- −4 -->
      <g transform="translate(50.257812 316.999219)scale(0.1 -0.1)">
       <defs>
        <path d="M 37.796875 64.3125 
L 12.890625 25.390625 
L 37.796875 25.390625 
z
M 35.203125 72.90625 
L 47.609375 72.90625 
L 47.609375 25.390625 
L 58.015625 25.390625 
L 58.015625 17.1875 
L 47.609375 17.1875 
L 47.609375 0 
L 37.796875 0 
L 37.796875 17.1875 
L 4.890625 17.1875 
L 4.890625 26.703125 
z
" id="DejaVuSans-52"/>
       </defs>
       <use xlink:href="#DejaVuSans-8722"/>
       <use x="83.789062" xlink:href="#DejaVuSans-52"/>
      </g>
     </g>
    </g>
    <g id="ytick_5">
     <g id="line2d_27">
      <path clip-path="url(#p28adc54ce4)" d="M 72 289.44 
L 518.4 289.44 
" style="fill:none;stroke:#808080;stroke-dasharray:0.3,0.495;stroke-dashoffset:0;stroke-width:0.3;"/>
     </g>
     <g id="line2d_28">
      <g>
       <use style="stroke:#000000;stroke-width:0.8;" x="72" xlink:href="#m510dc5ff7c" y="289.44"/>
      </g>
     </g>
     <g id="text_15">
      <!-- −3 -->
      <g transform="translate(50.257812 293.239219)scale(0.1 -0.1)">
       <defs>
        <path d="M 40.578125 39.3125 
Q 47.65625 37.796875 51.625 33 
Q 55.609375 28.21875 55.609375 21.1875 
Q 55.609375 10.40625 48.1875 4.484375 
Q 40.765625 -1.421875 27.09375 -1.421875 
Q 22.515625 -1.421875 17.65625 -0.515625 
Q 12.796875 0.390625 7.625 2.203125 
L 7.625 11.71875 
Q 11.71875 9.328125 16.59375 8.109375 
Q 21.484375 6.890625 26.8125 6.890625 
Q 36.078125 6.890625 40.9375 10.546875 
Q 45.796875 14.203125 45.796875 21.1875 
Q 45.796875 27.640625 41.28125 31.265625 
Q 36.765625 34.90625 28.71875 34.90625 
L 20.21875 34.90625 
L 20.21875 43.015625 
L 29.109375 43.015625 
Q 36.375 43.015625 40.234375 45.921875 
Q 44.09375 48.828125 44.09375 54.296875 
Q 44.09375 59.90625 40.109375 62.90625 
Q 36.140625 65.921875 28.71875 65.921875 
Q 24.65625 65.921875 20.015625 65.03125 
Q 15.375 64.15625 9.8125 62.3125 
L 9.8125 71.09375 
Q 15.4375 72.65625 20.34375 73.4375 
Q 25.25 74.21875 29.59375 74.21875 
Q 40.828125 74.21875 47.359375 69.109375 
Q 53.90625 64.015625 53.90625 55.328125 
Q 53.90625 49.265625 50.4375 45.09375 
Q 46.96875 40.921875 40.578125 39.3125 
z
" id="DejaVuSans-51"/>
       </defs>
       <use xlink:href="#DejaVuSans-8722"/>
       <use x="83.789062" xlink:href="#DejaVuSans-51"/>
      </g>
     </g>
    </g>
    <g id="ytick_6">
     <g id="line2d_29">
      <path clip-path="url(#p28adc54ce4)" d="M 72 265.68 
L 518.4 265.68 
" style="fill:none;stroke:#808080;stroke-dasharray:0.3,0.495;stroke-dashoffset:0;stroke-width:0.3;"/>
     </g>
     <g id="line2d_30">
      <g>
       <use style="stroke:#000000;stroke-width:0.8;" x="72" xlink:href="#m510dc5ff7c" y="265.68"/>
      </g>
     </g>
     <g id="text_16">
      <!-- −2 -->
      <g transform="translate(50.257812 269.479219)scale(0.1 -0.1)">
       <use xlink:href="#DejaVuSans-8722"/>
       <use x="83.789062" xlink:href="#DejaVuSans-50"/>
      </g>
     </g>
    </g>
    <g id="ytick_7">
     <g id="line2d_31">
      <path clip-path="url(#p28adc54ce4)" d="M 72 241.92 
L 518.4 241.92 
" style="fill:none;stroke:#808080;stroke-dasharray:0.3,0.495;stroke-dashoffset:0;stroke-width:0.3;"/>
     </g>
     <g id="line2d_32">
      <g>
       <use style="stroke:#000000;stroke-width:0.8;" x="72" xlink:href="#m510dc5ff7c" y="241.92"/>
      </g>
     </g>
     <g id="text_17">
      <!-- −1 -->
      <g transform="translate(50.257812 245.719219)scale(0.1 -0.1)">
       <use xlink:href="#DejaVuSans-8722"/>
       <use x="83.789062" xlink:href="#DejaVuSans-49"/>
      </g>
     </g>
    </g>
    <g id="ytick_8">
     <g id="line2d_33">
      <path clip-path="url(#p28adc54ce4)" d="M 72 218.16 
L 518.4 218.16 
" style="fill:none;stroke:#808080;stroke-dasharray:0.3,0.495;stroke-dashoffset:0;stroke-width:0.3;"/>
     </g>
     <g id="line2d_34">
      <g>
       <use style="stroke:#000000;stroke-width:0.8;" x="72" xlink:href="#m510dc5ff7c" y="218.16"/>
      </g>
     </g>
     <g id="text_18">
      <!-- 0 -->
      <g transform="translate(58.6375 221.959219)scale(0.1 -0.1)">
       <use xlink:href="#DejaVuSans-48"/>
      </g>
     </g>
    </g>
    <g id="ytick_9">
     <g id="line2d_35">
      <path clip-path="url(#p28adc54ce4)" d="M 72 194.4 
L 518.4 194.4 
" style="fill:none;stroke:#808080;stroke-dasharray:0.3,0.495;stroke-dashoffset:0;stroke-width:0.3;"/>
     </g>
     <g id="line2d_36">
      <g>
       <use style="stroke:#000000;stroke-width:0.8;" x="72" xlink:href="#m510dc5ff7c" y="194.4"/>
      </g>
     </g>
     <g id="text_19">
      <!-- 1 -->
      <g transform="translate(58.6375 198.199219)scale(0.1 -0.1)">
       <use xlink:href="#DejaVuSans-49"/>
      </g>
     </g>
    </g>
    <g id="ytick_10">
     <g id="line2d_37">
      <path clip-path="url(#p28adc54ce4)" d="M 72 170.64 
L 518.4 170.64 
" style="fill:none;stroke:#808080;stroke-dasharray:0.3,0.495;stroke-dashoffset:0;stroke-width:0.3;"/>
     </g>
     <g id="line2d_38">
      <g>
       <use style="stroke:#000000;stroke-width:0.8;" x="72" xlink:href="#m510dc5ff7c" y="170.64"/>
      </g>
     </g>
     <g id="text_20">
      <!-- 2 -->
      <g transform="translate(58.6375 174.439219)scale(0.1 -0.1)">
       <use xlink:href="#DejaVuSans-50"/>
      </g>
     </g>
    </g>
    <g id="ytick_11">
     <g id="line2d_39">
      <path clip-path="url(#p28adc54ce4)" d="M 72 146.88 
L 518.4 146.88 
" style="fill:none;stroke:#808080;stroke-dasharray:0.3,0.495;stroke-dashoffset:0;stroke-width:0.3;"/>
     </g>
     <g id="line2d_40">
      <g>
       <use style="stroke:#000000;stroke-width:0.8;" x="72" xlink:href="#m510dc5ff7c" y="146.88"/>
      </g>
     </g>
     <g id="text_21">
      <!-- 3 -->
      <g transform="translate(58.6375 150.679219)scale(0.1 -0.1)">
       <use xlink:href="#DejaVuSans-51"/>
      </g>
     </g>
    </g>
    <g id="ytick_12">
     <g id="line2d_41">
      <path clip-path="url(#p28adc54ce4)" d="M 72 123.12 
L 518.4 123.12 
" style="fill:none;stroke:#808080;stroke-dasharray:0.3,0.495;stroke-dashoffset:0;stroke-width:0.3;"/>
     </g>
     <g id="line2d_42">
      <g>
       <use style="stroke:#000000;stroke-width:0.8;" x="72" xlink:href="#m510dc5ff7c" y="123.12"/>
      </g>
     </g>
     <g id="text_22">
      <!-- 4 -->
      <g transform="translate(58.6375 126.919219)scale(0.1 -0.1)">
       <use xlink:href="#DejaVuSans-52"/>
      </g>
     </g>
    </g>
    <g id="ytick_13">
     <g id="line2d_43">
      <path clip-path="url(#p28adc54ce4)" d="M 72 99.36 
L 518.4 99.36 
" style="fill:none;stroke:#808080;stroke-dasharray:0.3,0.495;stroke-dashoffset:0;stroke-width:0.3;"/>
     </g>
     <g id="line2d_44">
      <g>
       <use style="stroke:#000000;stroke-width:0.8;" x="72" xlink:href="#m510dc5ff7c" y="99.36"/>
      </g>
     </g>
     <g id="text_23">
      <!-- 5 -->
      <g transform="translate(58.6375 103.159219)scale(0.1 -0.1)">
       <use xlink:href="#DejaVuSans-53"/>
      </g>
     </g>
    </g>
    <g id="ytick_14">
     <g id="line2d_45">
      <path clip-path="url(#p28adc54ce4)" d="M 72 75.6 
L 518.4 75.6 
" style="fill:none;stroke:#808080;stroke-dasharray:0.3,0.495;stroke-dashoffset:0;stroke-width:0.3;"/>
     </g>
     <g id="line2d_46">
      <g>
       <use style="stroke:#000000;stroke-width:0.8;" x="72" xlink:href="#m510dc5ff7c" y="75.6"/>
      </g>
     </g>
     <g id="text_24">
      <!-- 6 -->
      <g transform="translate(58.6375 79.399219)scale(0.1 -0.1)">
       <use xlink:href="#DejaVuSans-54"/>
      </g>
     </g>
    </g>
    <g id="ytick_15">
     <g id="line2d_47">
      <path clip-path="url(#p28adc54ce4)" d="M 72 51.84 
L 518.4 51.84 
" style="fill:none;stroke:#808080;stroke-dasharray:0.3,0.495;stroke-dashoffset:0;stroke-width:0.3;"/>
     </g>
     <g id="line2d_48">
      <g>
       <use style="stroke:#000000;stroke-width:0.8;" x="72" xlink:href="#m510dc5ff7c" y="51.84"/>
      </g>
     </g>
     <g id="text_25">
      <!-- 7 -->
      <g transform="translate(58.6375 55.639219)scale(0.1 -0.1)">
       <use xlink:href="#DejaVuSans-55"/>
      </g>
     </g>
    </g>
    <g id="text_26">
     <!-- y -->
     <g transform="translate(44.178125 221.119375)rotate(-90)scale(0.1 -0.1)">
      <defs>
       <path d="M 32.171875 -5.078125 
Q 28.375 -14.84375 24.75 -17.8125 
Q 21.140625 -20.796875 15.09375 -20.796875 
L 7.90625 -20.796875 
L 7.90625 -13.28125 
L 13.1875 -13.28125 
Q 16.890625 -13.28125 18.9375 -11.515625 
Q 21 -9.765625 23.484375 -3.21875 
L 25.09375 0.875 
L 2.984375 54.6875 
L 12.5 54.6875 
L 29.59375 11.921875 
L 46.6875 54.6875 
L 56.203125 54.6875 
z
" id="DejaVuSans-121"/>
      </defs>
      <use xlink:href="#DejaVuSans-121"/>
     </g>
    </g>
   </g>
   <g id="line2d_49">
    <path clip-path="url(#p28adc54ce4)" d="M 72 218.16 
L 518.4 218.16 
" style="fill:none;stroke:#808080;stroke-linecap:square;stroke-width:0.3;"/>
   </g>
   <g id="line2d_50">
    <path clip-path="url(#p28adc54ce4)" d="M 295.2 384.48 
L 295.2 51.84 
" style="fill:none;stroke:#808080;stroke-linecap:square;stroke-width:0.3;"/>
   </g>
   <g id="line2d_51">
    <path clip-path="url(#p28adc54ce4)" d="M 72 313.2 
L 76.509091 313.2 
L 81.018182 313.2 
L 85.527273 313.2 
L 90.036364 313.2 
L 94.545455 313.2 
L 99.054545 313.2 
L 103.563636 313.2 
L 108.072727 313.2 
L 112.581818 313.2 
L 117.090909 313.2 
L 121.6 313.2 
L 126.109091 313.2 
L 130.618182 313.2 
L 135.127273 313.2 
L 139.636364 313.2 
L 144.145455 313.2 
L 148.654545 313.2 
L 153.163636 313.2 
L 157.672727 313.2 
L 162.181818 313.2 
L 166.690909 313.2 
L 171.2 313.2 
L 175.709091 313.2 
L 180.218182 313.2 
L 184.727273 313.2 
L 189.236364 313.2 
L 193.745455 313.2 
L 198.254545 313.2 
L 202.763636 313.2 
L 207.272727 313.2 
L 211.781818 313.2 
L 216.290909 313.2 
L 220.8 313.2 
L 225.309091 313.2 
L 229.818182 313.2 
L 234.327273 313.2 
L 238.836364 313.2 
L 243.345455 313.2 
L 247.854545 313.2 
L 252.363636 313.2 
L 256.872727 313.2 
L 261.381818 313.2 
L 265.890909 313.2 
L 270.4 313.2 
L 274.909091 313.2 
L 279.418182 313.2 
L 283.927273 313.2 
L 288.436364 313.2 
L 292.945455 313.2 
L 297.454545 313.2 
L 301.963636 313.2 
L 306.472727 313.2 
L 310.981818 313.2 
L 315.490909 313.2 
L 320 313.2 
L 324.509091 313.2 
L 329.018182 313.2 
L 333.527273 313.2 
L 338.036364 313.2 
L 342.545455 313.2 
L 347.054545 313.2 
L 351.563636 313.2 
L 356.072727 313.2 
L 360.581818 313.2 
L 365.090909 313.2 
L 369.6 313.2 
L 374.109091 313.2 
L 378.618182 313.2 
L 383.127273 313.2 
L 387.636364 313.2 
L 392.145455 313.2 
L 396.654545 313.2 
L 401.163636 313.2 
L 405.672727 313.2 
L 410.181818 313.2 
L 414.690909 313.2 
L 419.2 313.2 
L 423.709091 313.2 
L 428.218182 313.2 
L 432.727273 313.2 
L 437.236364 313.2 
L 441.745455 313.2 
L 446.254545 313.2 
L 450.763636 313.2 
L 455.272727 313.2 
L 459.781818 313.2 
L 464.290909 313.2 
L 468.8 313.2 
L 473.309091 313.2 
L 477.818182 313.2 
L 482.327273 313.2 
L 486.836364 313.2 
L 491.345455 313.2 
L 495.854545 313.2 
L 500.363636 313.2 
L 504.872727 313.2 
L 509.381818 313.2 
L 513.890909 313.2 
L 518.4 313.2 
" style="fill:none;stroke:#ff0000;stroke-dasharray:2,3.3;stroke-dashoffset:0;stroke-width:2;"/>
   </g>
   <g id="line2d_52">
    <path clip-path="url(#p28adc54ce4)" d="M 72 336.96 
L 76.509091 342.357752 
L 81.018182 347.055704 
L 85.527273 351.090328 
L 90.036364 354.497337 
L 94.545455 357.311685 
L 99.054545 359.567563 
L 103.563636 361.298407 
L 108.072727 362.536888 
L 112.581818 363.314921 
L 117.090909 363.66366 
L 121.6 363.613498 
L 126.109091 363.19407 
L 130.618182 362.434249 
L 135.127273 361.362151 
L 139.636364 360.005129 
L 144.145455 358.389779 
L 148.654545 356.541935 
L 153.163636 354.486672 
L 157.672727 352.248305 
L 162.181818 349.85039 
L 166.690909 347.315723 
L 171.2 344.666337 
L 175.709091 341.923511 
L 180.218182 339.107759 
L 184.727273 336.238837 
L 189.236364 333.335741 
L 193.745455 330.416709 
L 198.254545 327.499216 
L 202.763636 324.59998 
L 207.272727 321.734956 
L 211.781818 318.919342 
L 216.290909 316.167576 
L 220.8 313.493333 
L 225.309091 310.909533 
L 229.818182 308.428331 
L 234.327273 306.061127 
L 238.836364 303.818558 
L 243.345455 301.710501 
L 247.854545 299.746076 
L 252.363636 297.93364 
L 256.872727 296.280792 
L 261.381818 294.79437 
L 265.890909 293.480454 
L 270.4 292.344362 
L 274.909091 291.390654 
L 279.418182 290.623128 
L 283.927273 290.044824 
L 288.436364 289.658022 
L 292.945455 289.46424 
L 297.454545 289.46424 
L 301.963636 289.658022 
L 306.472727 290.044824 
L 310.981818 290.623128 
L 315.490909 291.390654 
L 320 292.344362 
L 324.509091 293.480454 
L 329.018182 294.79437 
L 333.527273 296.280792 
L 338.036364 297.93364 
L 342.545455 299.746076 
L 347.054545 301.710501 
L 351.563636 303.818558 
L 356.072727 306.061127 
L 360.581818 308.428331 
L 365.090909 310.909533 
L 369.6 313.493333 
L 374.109091 316.167576 
L 378.618182 318.919342 
L 383.127273 321.734956 
L 387.636364 324.59998 
L 392.145455 327.499216 
L 396.654545 330.416709 
L 401.163636 333.335741 
L 405.672727 336.238837 
L 410.181818 339.107759 
L 414.690909 341.923511 
L 419.2 344.666337 
L 423.709091 347.315723 
L 428.218182 349.85039 
L 432.727273 352.248305 
L 437.236364 354.486672 
L 441.745455 356.541935 
L 446.254545 358.389779 
L 450.763636 360.005129 
L 455.272727 361.362151 
L 459.781818 362.434249 
L 464.290909 363.19407 
L 468.8 363.613498 
L 473.309091 363.66366 
L 477.818182 363.314921 
L 482.327273 362.536888 
L 486.836364 361.298407 
L 491.345455 359.567563 
L 495.854545 357.311685 
L 500.363636 354.497337 
L 504.872727 351.090328 
L 509.381818 347.055704 
L 513.890909 342.357752 
L 518.4 336.96 
" style="fill:none;stroke:#7348d6;stroke-linecap:square;stroke-width:2;"/>
   </g>
   <g id="line2d_53">
    <path clip-path="url(#p28adc54ce4)" d="M 72 194.4 
L 76.509091 212.797929 
L 81.018182 229.641105 
L 85.527273 245.002474 
L 90.036364 258.953462 
L 94.545455 271.563975 
L 99.054545 282.902399 
L 103.563636 293.035601 
L 108.072727 302.028927 
L 112.581818 309.946206 
L 117.090909 316.849744 
L 121.6 322.800329 
L 126.109091 327.85723 
L 130.618182 332.078195 
L 135.127273 335.519453 
L 139.636364 338.235712 
L 144.145455 340.280163 
L 148.654545 341.704475 
L 153.163636 342.558798 
L 157.672727 342.891762 
L 162.181818 342.750478 
L 166.690909 342.180536 
L 171.2 341.226008 
L 175.709091 339.929446 
L 180.218182 338.331881 
L 184.727273 336.472825 
L 189.236364 334.390271 
L 193.745455 332.120691 
L 198.254545 329.699039 
L 202.763636 327.158748 
L 207.272727 324.531731 
L 211.781818 321.848382 
L 216.290909 319.137576 
L 220.8 316.426667 
L 225.309091 313.74149 
L 229.818182 311.10636 
L 234.327273 308.544072 
L 238.836364 306.075903 
L 243.345455 303.721608 
L 247.854545 301.499424 
L 252.363636 299.426067 
L 256.872727 297.516735 
L 261.381818 295.785104 
L 265.890909 294.243332 
L 270.4 292.902058 
L 274.909091 291.770398 
L 279.418182 290.855952 
L 283.927273 290.164799 
L 288.436364 289.701498 
L 292.945455 289.469087 
L 297.454545 289.469087 
L 301.963636 289.701498 
L 306.472727 290.164799 
L 310.981818 290.855952 
L 315.490909 291.770398 
L 320 292.902058 
L 324.509091 294.243332 
L 329.018182 295.785104 
L 333.527273 297.516735 
L 338.036364 299.426067 
L 342.545455 301.499424 
L 347.054545 303.721608 
L 351.563636 306.075903 
L 356.072727 308.544072 
L 360.581818 311.10636 
L 365.090909 313.74149 
L 369.6 316.426667 
L 374.109091 319.137576 
L 378.618182 321.848382 
L 383.127273 324.531731 
L 387.636364 327.158748 
L 392.145455 329.699039 
L 396.654545 332.120691 
L 401.163636 334.390271 
L 405.672727 336.472825 
L 410.181818 338.331881 
L 414.690909 339.929446 
L 419.2 341.226008 
L 423.709091 342.180536 
L 428.218182 342.750478 
L 432.727273 342.891762 
L 437.236364 342.558798 
L 441.745455 341.704475 
L 446.254545 340.280163 
L 450.763636 338.235712 
L 455.272727 335.519453 
L 459.781818 332.078195 
L 464.290909 327.85723 
L 468.8 322.800329 
L 473.309091 316.849744 
L 477.818182 309.946206 
L 482.327273 302.028927 
L 486.836364 293.035601 
L 491.345455 282.902399 
L 495.854545 271.563975 
L 500.363636 258.953462 
L 504.872727 245.002474 
L 509.381818 229.641105 
L 513.890909 212.797929 
L 518.4 194.4 
" style="fill:none;stroke:#e3171f;stroke-linecap:square;stroke-width:2;"/>
   </g>
   <g id="line2d_54">
    <path clip-path="url(#p28adc54ce4)" d="M 81.514948 -1 
L 85.527273 32.826767 
L 90.036364 67.865713 
L 94.545455 100.068557 
L 99.054545 129.572071 
L 103.563636 156.50999 
L 108.072727 181.013006 
L 112.581818 203.208775 
L 117.090909 223.221912 
L 121.6 241.173992 
L 126.109091 257.183551 
L 130.618182 271.366087 
L 135.127273 283.834057 
L 139.636364 294.69688 
L 144.145455 304.060933 
L 148.654545 312.029556 
L 153.163636 318.70305 
L 157.672727 324.178675 
L 162.181818 328.550652 
L 166.690909 331.910163 
L 171.2 334.34535 
L 175.709091 335.941316 
L 180.218182 336.780125 
L 184.727273 336.940801 
L 189.236364 336.49933 
L 193.745455 335.528655 
L 198.254545 334.098684 
L 202.763636 332.276283 
L 207.272727 330.125279 
L 211.781818 327.706461 
L 216.290909 325.077576 
L 220.8 322.293333 
L 225.309091 319.405403 
L 229.818182 316.462416 
L 234.327273 313.509962 
L 238.836364 310.590594 
L 243.345455 307.743822 
L 247.854545 305.006121 
L 252.363636 302.410922 
L 256.872727 299.988621 
L 261.381818 297.766572 
L 265.890909 295.769089 
L 270.4 294.017449 
L 274.909091 292.529887 
L 279.418182 291.321602 
L 283.927273 290.40475 
L 288.436364 289.78845 
L 292.945455 289.47878 
L 297.454545 289.47878 
L 301.963636 289.78845 
L 306.472727 290.40475 
L 310.981818 291.321602 
L 315.490909 292.529887 
L 320 294.017449 
L 324.509091 295.769089 
L 329.018182 297.766572 
L 333.527273 299.988621 
L 338.036364 302.410922 
L 342.545455 305.006121 
L 347.054545 307.743822 
L 351.563636 310.590594 
L 356.072727 313.509962 
L 360.581818 316.462416 
L 365.090909 319.405403 
L 369.6 322.293333 
L 374.109091 325.077576 
L 378.618182 327.706461 
L 383.127273 330.125279 
L 387.636364 332.276283 
L 392.145455 334.098684 
L 396.654545 335.528655 
L 401.163636 336.49933 
L 405.672727 336.940801 
L 410.181818 336.780125 
L 414.690909 335.941316 
L 419.2 334.34535 
L 423.709091 331.910163 
L 428.218182 328.550652 
L 432.727273 324.178675 
L 437.236364 318.70305 
L 441.745455 312.029556 
L 446.254545 304.060933 
L 450.763636 294.69688 
L 455.272727 283.834057 
L 459.781818 271.366087 
L 464.290909 257.183551 
L 468.8 241.173992 
L 473.309091 223.221912 
L 477.818182 203.208775 
L 482.327273 181.013006 
L 486.836364 156.50999 
L 491.345455 129.572071 
L 495.854545 100.068557 
L 500.363636 67.865713 
L 504.872727 32.826767 
L 508.885052 -1 
" style="fill:none;stroke:#0fa99c;stroke-linecap:square;stroke-width:2;"/>
   </g>
   <g id="line2d_55">
    <path clip-path="url(#p28adc54ce4)" d="M 101.400519 -1 
L 103.563636 19.984379 
L 108.072727 59.997085 
L 112.581818 96.471345 
L 117.090909 129.59408 
L 121.6 159.547654 
L 126.109091 186.509872 
L 130.618182 210.653979 
L 135.127273 232.148662 
L 139.636364 251.158047 
L 144.145455 267.841702 
L 148.654545 282.354638 
L 153.163636 294.847303 
L 157.672727 305.465588 
L 162.181818 314.350827 
L 166.690909 321.63979 
L 171.2 327.464691 
L 175.709091 331.953186 
L 180.218182 335.22837 
L 184.727273 337.408778 
L 189.236364 338.608388 
L 193.745455 338.936619 
L 198.254545 338.498329 
L 202.763636 337.393818 
L 207.272727 335.718828 
L 211.781818 333.564539 
L 216.290909 331.017576 
L 220.8 328.16 
L 225.309091 325.069317 
L 229.818182 321.818473 
L 234.327273 318.475853 
L 238.836364 315.105285 
L 243.345455 311.766036 
L 247.854545 308.512817 
L 252.363636 305.395777 
L 256.872727 302.460507 
L 261.381818 299.748039 
L 265.890909 297.294845 
L 270.4 295.13284 
L 274.909091 293.289376 
L 279.418182 291.787251 
L 283.927273 290.644701 
L 288.436364 289.875402 
L 292.945455 289.488473 
L 297.454545 289.488473 
L 301.963636 289.875402 
L 306.472727 290.644701 
L 310.981818 291.787251 
L 315.490909 293.289376 
L 320 295.13284 
L 324.509091 297.294845 
L 329.018182 299.748039 
L 333.527273 302.460507 
L 338.036364 305.395777 
L 342.545455 308.512817 
L 347.054545 311.766036 
L 351.563636 315.105285 
L 356.072727 318.475853 
L 360.581818 321.818473 
L 365.090909 325.069317 
L 369.6 328.16 
L 374.109091 331.017576 
L 378.618182 333.564539 
L 383.127273 335.718828 
L 387.636364 337.393818 
L 392.145455 338.498329 
L 396.654545 338.936619 
L 401.163636 338.608388 
L 405.672727 337.408778 
L 410.181818 335.22837 
L 414.690909 331.953186 
L 419.2 327.464691 
L 423.709091 321.63979 
L 428.218182 314.350827 
L 432.727273 305.465588 
L 437.236364 294.847303 
L 441.745455 282.354638 
L 446.254545 267.841702 
L 450.763636 251.158047 
L 455.272727 232.148662 
L 459.781818 210.653979 
L 464.290909 186.509872 
L 468.8 159.547654 
L 473.309091 129.59408 
L 477.818182 96.471345 
L 482.327273 59.997085 
L 486.836364 19.984379 
L 488.999481 -1 
" style="fill:none;stroke:#dc5deb;stroke-linecap:square;stroke-width:2;"/>
   </g>
   <g id="line2d_56">
    <path clip-path="url(#p28adc54ce4)" d="M 113.48555 -1 
L 117.090909 35.966248 
L 121.6 77.921317 
L 126.109091 115.836193 
L 130.618182 149.941871 
L 135.127273 180.463266 
L 139.636364 207.619214 
L 144.145455 231.622472 
L 148.654545 252.679719 
L 153.163636 270.991555 
L 157.672727 286.752502 
L 162.181818 300.151001 
L 166.690909 311.369416 
L 171.2 320.584033 
L 175.709091 327.965056 
L 180.218182 333.676614 
L 184.727273 337.876754 
L 189.236364 340.717447 
L 193.745455 342.344583 
L 198.254545 342.897974 
L 202.763636 342.511354 
L 207.272727 341.312377 
L 211.781818 339.422618 
L 216.290909 336.957576 
L 220.8 334.026667 
L 225.309091 330.733231 
L 229.818182 327.174529 
L 234.327273 323.441743 
L 238.836364 319.619975 
L 243.345455 315.788251 
L 247.854545 312.019514 
L 252.363636 308.380633 
L 256.872727 304.932394 
L 261.381818 301.729507 
L 265.890909 298.820602 
L 270.4 296.24823 
L 274.909091 294.048866 
L 279.418182 292.252901 
L 283.927273 290.884652 
L 288.436364 289.962354 
L 292.945455 289.498166 
L 297.454545 289.498166 
L 301.963636 289.962354 
L 306.472727 290.884652 
L 310.981818 292.252901 
L 315.490909 294.048866 
L 320 296.24823 
L 324.509091 298.820602 
L 329.018182 301.729507 
L 333.527273 304.932394 
L 338.036364 308.380633 
L 342.545455 312.019514 
L 347.054545 315.788251 
L 351.563636 319.619975 
L 356.072727 323.441743 
L 360.581818 327.174529 
L 365.090909 330.733231 
L 369.6 334.026667 
L 374.109091 336.957576 
L 378.618182 339.422618 
L 383.127273 341.312377 
L 387.636364 342.511354 
L 392.145455 342.897974 
L 396.654545 342.344583 
L 401.163636 340.717447 
L 405.672727 337.876754 
L 410.181818 333.676614 
L 414.690909 327.965056 
L 419.2 320.584033 
L 423.709091 311.369416 
L 428.218182 300.151001 
L 432.727273 286.752502 
L 437.236364 270.991555 
L 441.745455 252.679719 
L 446.254545 231.622472 
L 450.763636 207.619214 
L 455.272727 180.463266 
L 459.781818 149.941871 
L 464.290909 115.836193 
L 468.8 77.921317 
L 473.309091 35.966248 
L 476.91445 -1 
" style="fill:none;stroke:#b5e513;stroke-linecap:square;stroke-width:2;"/>
   </g>
   <g id="patch_3">
    <path d="M 72 384.48 
L 72 51.84 
" style="fill:none;stroke:#000000;stroke-linecap:square;stroke-linejoin:miter;stroke-width:0.8;"/>
   </g>
   <g id="patch_4">
    <path d="M 518.4 384.48 
L 518.4 51.84 
" style="fill:none;stroke:#000000;stroke-linecap:square;stroke-linejoin:miter;stroke-width:0.8;"/>
   </g>
   <g id="patch_5">
    <path d="M 72 384.48 
L 518.4 384.48 
" style="fill:none;stroke:#000000;stroke-linecap:square;stroke-linejoin:miter;stroke-width:0.8;"/>
   </g>
   <g id="patch_6">
    <path d="M 72 51.84 
L 518.4 51.84 
" style="fill:none;stroke:#000000;stroke-linecap:square;stroke-linejoin:miter;stroke-width:0.8;"/>
   </g>
   <g id="patch_7">
    <path d="M 310.830469 282.456586 
Q 303.929174 285.539961 298.048664 288.167268 
" style="fill:none;stroke:#000000;stroke-linecap:round;"/>
    <path d="M 302.516575 288.361623 
L 298.048664 288.167268 
L 300.884895 284.709552 
" style="fill:none;stroke:#000000;stroke-linecap:round;"/>
   </g>
   <g id="text_27">
    <!-- maximal -->
    <g transform="translate(306.36 277.56)scale(0.1 -0.1)">
     <defs>
      <path d="M 52 44.1875 
Q 55.375 50.25 60.0625 53.125 
Q 64.75 56 71.09375 56 
Q 79.640625 56 84.28125 50.015625 
Q 88.921875 44.046875 88.921875 33.015625 
L 88.921875 0 
L 79.890625 0 
L 79.890625 32.71875 
Q 79.890625 40.578125 77.09375 44.375 
Q 74.3125 48.1875 68.609375 48.1875 
Q 61.625 48.1875 57.5625 43.546875 
Q 53.515625 38.921875 53.515625 30.90625 
L 53.515625 0 
L 44.484375 0 
L 44.484375 32.71875 
Q 44.484375 40.625 41.703125 44.40625 
Q 38.921875 48.1875 33.109375 48.1875 
Q 26.21875 48.1875 22.15625 43.53125 
Q 18.109375 38.875 18.109375 30.90625 
L 18.109375 0 
L 9.078125 0 
L 9.078125 54.6875 
L 18.109375 54.6875 
L 18.109375 46.1875 
Q 21.1875 51.21875 25.484375 53.609375 
Q 29.78125 56 35.6875 56 
Q 41.65625 56 45.828125 52.96875 
Q 50 49.953125 52 44.1875 
z
" id="DejaVuSans-109"/>
      <path d="M 34.28125 27.484375 
Q 23.390625 27.484375 19.1875 25 
Q 14.984375 22.515625 14.984375 16.5 
Q 14.984375 11.71875 18.140625 8.90625 
Q 21.296875 6.109375 26.703125 6.109375 
Q 34.1875 6.109375 38.703125 11.40625 
Q 43.21875 16.703125 43.21875 25.484375 
L 43.21875 27.484375 
z
M 52.203125 31.203125 
L 52.203125 0 
L 43.21875 0 
L 43.21875 8.296875 
Q 40.140625 3.328125 35.546875 0.953125 
Q 30.953125 -1.421875 24.3125 -1.421875 
Q 15.921875 -1.421875 10.953125 3.296875 
Q 6 8.015625 6 15.921875 
Q 6 25.140625 12.171875 29.828125 
Q 18.359375 34.515625 30.609375 34.515625 
L 43.21875 34.515625 
L 43.21875 35.40625 
Q 43.21875 41.609375 39.140625 45 
Q 35.0625 48.390625 27.6875 48.390625 
Q 23 48.390625 18.546875 47.265625 
Q 14.109375 46.140625 10.015625 43.890625 
L 10.015625 52.203125 
Q 14.9375 54.109375 19.578125 55.046875 
Q 24.21875 56 28.609375 56 
Q 40.484375 56 46.34375 49.84375 
Q 52.203125 43.703125 52.203125 31.203125 
z
" id="DejaVuSans-97"/>
      <path d="M 9.421875 54.6875 
L 18.40625 54.6875 
L 18.40625 0 
L 9.421875 0 
z
M 9.421875 75.984375 
L 18.40625 75.984375 
L 18.40625 64.59375 
L 9.421875 64.59375 
z
" id="DejaVuSans-105"/>
      <path d="M 9.421875 75.984375 
L 18.40625 75.984375 
L 18.40625 0 
L 9.421875 0 
z
" id="DejaVuSans-108"/>
     </defs>
     <use xlink:href="#DejaVuSans-109"/>
     <use x="97.412109" xlink:href="#DejaVuSans-97"/>
     <use x="158.691406" xlink:href="#DejaVuSans-120"/>
     <use x="217.871094" xlink:href="#DejaVuSans-105"/>
     <use x="245.654297" xlink:href="#DejaVuSans-109"/>
     <use x="343.066406" xlink:href="#DejaVuSans-97"/>
     <use x="404.345703" xlink:href="#DejaVuSans-108"/>
    </g>
   </g>
   <g id="text_28">
    <!-- $y = a x^{4} - (a + 2) x^{2} - 3$ -->
    <g transform="translate(218.2 30.874875)scale(0.14 -0.14)">
     <defs>
      <path d="M 24.8125 -5.078125 
Q 18.5625 -15.578125 14.625 -18.1875 
Q 10.6875 -20.796875 4.59375 -20.796875 
L -2.484375 -20.796875 
L -0.984375 -13.28125 
L 4.203125 -13.28125 
Q 7.953125 -13.28125 10.59375 -11.234375 
Q 13.234375 -9.1875 16.5 -3.21875 
L 19.28125 2 
L 7.171875 54.6875 
L 16.703125 54.6875 
L 25.78125 12.796875 
L 50.875 54.6875 
L 60.296875 54.6875 
z
" id="DejaVuSans-Oblique-121"/>
      <path d="M 10.59375 45.40625 
L 73.1875 45.40625 
L 73.1875 37.203125 
L 10.59375 37.203125 
z
M 10.59375 25.484375 
L 73.1875 25.484375 
L 73.1875 17.1875 
L 10.59375 17.1875 
z
" id="DejaVuSans-61"/>
      <path d="M 53.71875 31.203125 
L 47.609375 0 
L 38.625 0 
L 40.28125 8.296875 
Q 36.328125 3.421875 31.265625 1 
Q 26.21875 -1.421875 20.015625 -1.421875 
Q 13.03125 -1.421875 8.5625 2.84375 
Q 4.109375 7.125 4.109375 13.8125 
Q 4.109375 23.390625 11.75 28.953125 
Q 19.390625 34.515625 32.8125 34.515625 
L 45.3125 34.515625 
L 45.796875 36.921875 
Q 45.90625 37.3125 45.953125 37.765625 
Q 46 38.234375 46 39.203125 
Q 46 43.5625 42.453125 45.96875 
Q 38.921875 48.390625 32.515625 48.390625 
Q 28.125 48.390625 23.5 47.265625 
Q 18.890625 46.140625 14.015625 43.890625 
L 15.578125 52.203125 
Q 20.65625 54.109375 25.515625 55.046875 
Q 30.375 56 34.90625 56 
Q 44.578125 56 49.625 51.796875 
Q 54.6875 47.609375 54.6875 39.59375 
Q 54.6875 37.984375 54.4375 35.8125 
Q 54.203125 33.640625 53.71875 31.203125 
z
M 44 27.484375 
L 35.015625 27.484375 
Q 23.96875 27.484375 18.671875 24.53125 
Q 13.375 21.578125 13.375 15.375 
Q 13.375 11.078125 16.078125 8.640625 
Q 18.796875 6.203125 23.578125 6.203125 
Q 30.90625 6.203125 36.375 11.453125 
Q 41.84375 16.703125 43.609375 25.484375 
z
" id="DejaVuSans-Oblique-97"/>
      <path d="M 60.015625 54.6875 
L 34.90625 27.875 
L 50.296875 0 
L 39.984375 0 
L 28.421875 21.6875 
L 8.296875 0 
L -2.59375 0 
L 24.3125 28.8125 
L 10.015625 54.6875 
L 20.3125 54.6875 
L 30.8125 34.90625 
L 49.125 54.6875 
z
" id="DejaVuSans-Oblique-120"/>
      <path d="M 31 75.875 
Q 24.46875 64.65625 21.28125 53.65625 
Q 18.109375 42.671875 18.109375 31.390625 
Q 18.109375 20.125 21.3125 9.0625 
Q 24.515625 -2 31 -13.1875 
L 23.1875 -13.1875 
Q 15.875 -1.703125 12.234375 9.375 
Q 8.59375 20.453125 8.59375 31.390625 
Q 8.59375 42.28125 12.203125 53.3125 
Q 15.828125 64.359375 23.1875 75.875 
z
" id="DejaVuSans-40"/>
      <path d="M 46 62.703125 
L 46 35.5 
L 73.1875 35.5 
L 73.1875 27.203125 
L 46 27.203125 
L 46 0 
L 37.796875 0 
L 37.796875 27.203125 
L 10.59375 27.203125 
L 10.59375 35.5 
L 37.796875 35.5 
L 37.796875 62.703125 
z
" id="DejaVuSans-43"/>
      <path d="M 8.015625 75.875 
L 15.828125 75.875 
Q 23.140625 64.359375 26.78125 53.3125 
Q 30.421875 42.28125 30.421875 31.390625 
Q 30.421875 20.453125 26.78125 9.375 
Q 23.140625 -1.703125 15.828125 -13.1875 
L 8.015625 -13.1875 
Q 14.5 -2 17.703125 9.0625 
Q 20.90625 20.125 20.90625 31.390625 
Q 20.90625 42.671875 17.703125 53.65625 
Q 14.5 64.65625 8.015625 75.875 
z
" id="DejaVuSans-41"/>
     </defs>
     <use transform="translate(0 0.765625)" xlink:href="#DejaVuSans-Oblique-121"/>
     <use transform="translate(78.662109 0.765625)" xlink:href="#DejaVuSans-61"/>
     <use transform="translate(181.933594 0.765625)" xlink:href="#DejaVuSans-Oblique-97"/>
     <use transform="translate(243.212891 0.765625)" xlink:href="#DejaVuSans-Oblique-120"/>
     <use transform="translate(306.858724 39.046875)scale(0.7)" xlink:href="#DejaVuSans-52"/>
     <use transform="translate(373.611654 0.765625)" xlink:href="#DejaVuSans-8722"/>
     <use transform="translate(476.883138 0.765625)" xlink:href="#DejaVuSans-40"/>
     <use transform="translate(515.89681 0.765625)" xlink:href="#DejaVuSans-Oblique-97"/>
     <use transform="translate(596.658529 0.765625)" xlink:href="#DejaVuSans-43"/>
     <use transform="translate(699.930013 0.765625)" xlink:href="#DejaVuSans-50"/>
     <use transform="translate(763.55306 0.765625)" xlink:href="#DejaVuSans-41"/>
     <use transform="translate(802.566732 0.765625)" xlink:href="#DejaVuSans-Oblique-120"/>
     <use transform="translate(866.212565 39.046875)scale(0.7)" xlink:href="#DejaVuSans-50"/>
     <use transform="translate(932.965495 0.765625)" xlink:href="#DejaVuSans-8722"/>
     <use transform="translate(1036.236979 0.765625)" xlink:href="#DejaVuSans-51"/>
    </g>
    <!--  -->
    <g transform="translate(295.2 45.84)scale(0.14 -0.14)"/>
   </g>
   <g id="legend_1">
    <g id="patch_8">
     <path d="M 247.062969 186.33625 
L 343.337031 186.33625 
Q 346.137031 186.33625 346.137031 183.53625 
L 346.137031 61.64 
Q 346.137031 58.84 343.337031 58.84 
L 247.062969 58.84 
Q 244.262969 58.84 244.262969 61.64 
L 244.262969 183.53625 
Q 244.262969 186.33625 247.062969 186.33625 
z
" style="fill:#ffffff;opacity:0.8;stroke:#cccccc;stroke-linejoin:miter;"/>
    </g>
    <g id="line2d_57">
     <path d="M 249.862969 70.177812 
L 277.862969 70.177812 
" style="fill:none;stroke:#ff0000;stroke-dasharray:2,3.3;stroke-dashoffset:0;stroke-width:2;"/>
    </g>
    <g id="line2d_58"/>
    <g id="text_29">
     <!-- y = -4 -->
     <g transform="translate(289.062969 75.077812)scale(0.14 -0.14)">
      <defs>
       <path id="DejaVuSans-32"/>
       <path d="M 4.890625 31.390625 
L 31.203125 31.390625 
L 31.203125 23.390625 
L 4.890625 23.390625 
z
" id="DejaVuSans-45"/>
      </defs>
      <use xlink:href="#DejaVuSans-121"/>
      <use x="59.179688" xlink:href="#DejaVuSans-32"/>
      <use x="90.966797" xlink:href="#DejaVuSans-61"/>
      <use x="174.755859" xlink:href="#DejaVuSans-32"/>
      <use x="206.542969" xlink:href="#DejaVuSans-45"/>
      <use x="242.626953" xlink:href="#DejaVuSans-52"/>
     </g>
    </g>
    <g id="line2d_59">
     <path d="M 249.862969 90.727187 
L 277.862969 90.727187 
" style="fill:none;stroke:#7348d6;stroke-linecap:square;stroke-width:2;"/>
    </g>
    <g id="line2d_60"/>
    <g id="text_30">
     <!-- a = 0.5 -->
     <g transform="translate(289.062969 95.627187)scale(0.14 -0.14)">
      <use xlink:href="#DejaVuSans-97"/>
      <use x="61.279297" xlink:href="#DejaVuSans-32"/>
      <use x="93.066406" xlink:href="#DejaVuSans-61"/>
      <use x="176.855469" xlink:href="#DejaVuSans-32"/>
      <use x="208.642578" xlink:href="#DejaVuSans-48"/>
      <use x="272.265625" xlink:href="#DejaVuSans-46"/>
      <use x="304.052734" xlink:href="#DejaVuSans-53"/>
     </g>
    </g>
    <g id="line2d_61">
     <path d="M 249.862969 111.276562 
L 277.862969 111.276562 
" style="fill:none;stroke:#e3171f;stroke-linecap:square;stroke-width:2;"/>
    </g>
    <g id="line2d_62"/>
    <g id="text_31">
     <!-- a = 1 -->
     <g transform="translate(289.062969 116.176562)scale(0.14 -0.14)">
      <use xlink:href="#DejaVuSans-97"/>
      <use x="61.279297" xlink:href="#DejaVuSans-32"/>
      <use x="93.066406" xlink:href="#DejaVuSans-61"/>
      <use x="176.855469" xlink:href="#DejaVuSans-32"/>
      <use x="208.642578" xlink:href="#DejaVuSans-49"/>
     </g>
    </g>
    <g id="line2d_63">
     <path d="M 249.862969 131.825937 
L 277.862969 131.825937 
" style="fill:none;stroke:#0fa99c;stroke-linecap:square;stroke-width:2;"/>
    </g>
    <g id="line2d_64"/>
    <g id="text_32">
     <!-- a = 2 -->
     <g transform="translate(289.062969 136.725937)scale(0.14 -0.14)">
      <use xlink:href="#DejaVuSans-97"/>
      <use x="61.279297" xlink:href="#DejaVuSans-32"/>
      <use x="93.066406" xlink:href="#DejaVuSans-61"/>
      <use x="176.855469" xlink:href="#DejaVuSans-32"/>
      <use x="208.642578" xlink:href="#DejaVuSans-50"/>
     </g>
    </g>
    <g id="line2d_65">
     <path d="M 249.862969 152.375312 
L 277.862969 152.375312 
" style="fill:none;stroke:#dc5deb;stroke-linecap:square;stroke-width:2;"/>
    </g>
    <g id="line2d_66"/>
    <g id="text_33">
     <!-- a = 3 -->
     <g transform="translate(289.062969 157.275312)scale(0.14 -0.14)">
      <use xlink:href="#DejaVuSans-97"/>
      <use x="61.279297" xlink:href="#DejaVuSans-32"/>
      <use x="93.066406" xlink:href="#DejaVuSans-61"/>
      <use x="176.855469" xlink:href="#DejaVuSans-32"/>
      <use x="208.642578" xlink:href="#DejaVuSans-51"/>
     </g>
    </g>
    <g id="line2d_67">
     <path d="M 249.862969 172.924687 
L 277.862969 172.924687 
" style="fill:none;stroke:#b5e513;stroke-linecap:square;stroke-width:2;"/>
    </g>
    <g id="line2d_68"/>
    <g id="text_34">
     <!-- a = 4 -->
     <g transform="translate(289.062969 177.824687)scale(0.14 -0.14)">
      <use xlink:href="#DejaVuSans-97"/>
      <use x="61.279297" xlink:href="#DejaVuSans-32"/>
      <use x="93.066406" xlink:href="#DejaVuSans-61"/>
      <use x="176.855469" xlink:href="#DejaVuSans-32"/>
      <use x="208.642578" xlink:href="#DejaVuSans-52"/>
     </g>
    </g>
   </g>
  </g>
 </g>
 <defs>
  <clipPath id="p28adc54ce4">
   <rect height="332.64" width="446.4" x="72" y="51.84"/>
  </clipPath>
 </defs>
</svg>
